<svg xmlns="http://www.w3.org/2000/svg" viewBox="0 0 700 500">
  <defs>
    <style>
      .client { fill: #e3f2fd; stroke: #1976d2; stroke-width: 2; }
      .lb { fill: #f3e5f5; stroke: #7b1fa2; stroke-width: 2; }
      .servers { fill: #fff8e1; stroke: #f9a825; stroke-width: 2; }
      .server-inner { fill: #fffde7; stroke: #fbc02d; stroke-width: 1; }
      .redis { fill: #fce4ec; stroke: #c2185b; stroke-width: 2; }
      .text { font-family: 'Segoe UI', Arial, sans-serif; font-size: 12px; fill: #333; }
      .title { font-family: 'Segoe UI', Arial, sans-serif; font-size: 11px; fill: #666; }
      .small { font-family: 'Segoe UI', Arial, sans-serif; font-size: 10px; fill: #555; }
      .arrow { stroke: #555; stroke-width: 2; fill: none; }
      .arrow-head { fill: #555; }
      .dashed { stroke-dasharray: 5,5; }
      .label { font-family: 'Segoe UI', Arial, sans-serif; font-size: 10px; fill: #666; }
    </style>
    <marker id="arrowhead2" markerWidth="10" markerHeight="7" refX="9" refY="3.5" orient="auto">
      <polygon points="0 0, 10 3.5, 0 7" class="arrow-head"/>
    </marker>
  </defs>
  
  <!-- Client Box -->
  <rect x="290" y="10" width="120" height="50" rx="8" class="client"/>
  <text x="350" y="30" text-anchor="middle" class="title">Client</text>
  <text x="350" y="48" text-anchor="middle" class="text">User Request</text>
  
  <!-- Load Balancer Box -->
  <rect x="290" y="90" width="120" height="50" rx="8" class="lb"/>
  <text x="350" y="110" text-anchor="middle" class="title">Load Balancer</text>
  <text x="350" y="128" text-anchor="middle" class="text">Nginx</text>
  
  <!-- API Servers Container -->
  <rect x="60" y="170" width="580" height="170" rx="8" class="servers"/>
  <text x="350" y="190" text-anchor="middle" class="title">API Servers</text>
  
  <!-- Server 1 -->
  <rect x="80" y="205" width="160" height="120" rx="6" class="server-inner"/>
  <text x="160" y="225" text-anchor="middle" class="small">Server 1</text>
  <polygon points="160,240 200,260 200,290 160,310 120,290 120,260" fill="#fff3e0" stroke="#ff9800" stroke-width="1"/>
  <text x="160" y="280" text-anchor="middle" class="small">Rate Limiter</text>
  
  <!-- Server 2 -->
  <rect x="270" y="205" width="160" height="120" rx="6" class="server-inner"/>
  <text x="350" y="225" text-anchor="middle" class="small">Server 2</text>
  <polygon points="350,240 390,260 390,290 350,310 310,290 310,260" fill="#fff3e0" stroke="#ff9800" stroke-width="1"/>
  <text x="350" y="280" text-anchor="middle" class="small">Rate Limiter</text>
  
  <!-- Server 3 -->
  <rect x="460" y="205" width="160" height="120" rx="6" class="server-inner"/>
  <text x="540" y="225" text-anchor="middle" class="small">Server 3</text>
  <polygon points="540,240 580,260 580,290 540,310 500,290 500,260" fill="#fff3e0" stroke="#ff9800" stroke-width="1"/>
  <text x="540" y="280" text-anchor="middle" class="small">Rate Limiter</text>
  
  <!-- Redis Box -->
  <rect x="250" y="380" width="200" height="70" rx="8" class="redis"/>
  <text x="350" y="405" text-anchor="middle" class="title">Redis + Lua Script</text>
  <text x="350" y="425" text-anchor="middle" class="text">Redis ZSET</text>
  <text x="350" y="440" text-anchor="middle" class="small">+ Atomic Lua</text>
  
  <!-- Arrows -->
  <!-- Client to LB -->
  <line x1="350" y1="60" x2="350" y2="88" class="arrow" marker-end="url(#arrowhead2)"/>
  
  <!-- LB to Servers -->
  <line x1="320" y1="140" x2="160" y2="203" class="arrow" marker-end="url(#arrowhead2)"/>
  <line x1="350" y1="140" x2="350" y2="203" class="arrow" marker-end="url(#arrowhead2)"/>
  <line x1="380" y1="140" x2="540" y2="203" class="arrow" marker-end="url(#arrowhead2)"/>
  
  <!-- Servers to Redis (dashed) -->
  <line x1="160" y1="325" x2="270" y2="378" class="arrow dashed" marker-end="url(#arrowhead2)"/>
  <line x1="350" y1="340" x2="350" y2="378" class="arrow dashed" marker-end="url(#arrowhead2)"/>
  <line x1="540" y1="325" x2="430" y2="378" class="arrow dashed" marker-end="url(#arrowhead2)"/>
  <text x="500" y="360" class="label">Atomic Check</text>
</svg>
